#tb 0: 1/25
0,          0,          0,        1,   299520, 0x8da5c3c6
0,          1,          1,        1,   299520, 0x025866a1
0,          2,          2,        1,   299520, 0x070e8fe3
0,          3,          3,        1,   299520, 0xfef50b62
0,          4,          4,        1,   299520, 0xe22fd2b8
0,          5,          5,        1,   299520, 0x064193b3
0,          6,          6,        1,   299520, 0x76d298b8
0,          7,          7,        1,   299520, 0x213f0d43
0,          8,          8,        1,   299520, 0xf659dbc5
0,          9,          9,        1,   299520, 0xe7dda2b9
0,         10,         10,        1,   299520, 0x16897505
0,         11,         11,        1,   299520, 0x7399164f
0,         12,         12,        1,   299520, 0x69e1ff28
0,         13,         13,        1,   299520, 0x050f3c7a
0,         14,         14,        1,   299520, 0x6de0c98c
0,         15,         15,        1,   299520, 0x28fc7121
0,         16,         16,        1,   299520, 0xc4cb4cf5
0,         17,         17,        1,   299520, 0x5bfa175f
0,         18,         18,        1,   299520, 0x6a94f7c2
0,         19,         19,        1,   299520, 0x65e3b98f
0,         20,         20,        1,   299520, 0x935ec542
0,         21,         21,        1,   299520, 0x1483e746
0,         22,         22,        1,   299520, 0xdac519cd
0,         23,         23,        1,   299520, 0x7b74dc48
0,         24,         24,        1,   299520, 0x44bcbfb4
0,         25,         25,        1,   299520, 0x6c570aac
0,         26,         26,        1,   299520, 0x83163695
0,         27,         27,        1,   299520, 0xd1dc795a
0,         28,         28,        1,   299520, 0x0da7f20b
0,         29,         29,        1,   299520, 0x6bf73935
0,         30,         30,        1,   299520, 0x473bb7ac
0,         31,         31,        1,   299520, 0xceb56aad
0,         32,         32,        1,   299520, 0x39458d6e
0,         33,         33,        1,   299520, 0x51ebe0d4
0,         34,         34,        1,   299520, 0x4626f12d
0,         35,         35,        1,   299520, 0x2996e1fb
0,         36,         36,        1,   299520, 0xef948f6a
0,         37,         37,        1,   299520, 0xbc184a29
0,         38,         38,        1,   299520, 0x7d5e92c2
0,         39,         39,        1,   299520, 0x17033bd5
0,         40,         40,        1,   299520, 0x8cd1710c
0,         41,         41,        1,   299520, 0x08f126cb
0,         42,         42,        1,   299520, 0x577dd4f5
0,         43,         43,        1,   299520, 0x36d69adc
0,         44,         44,        1,   299520, 0x2f17b4a5
0,         45,         45,        1,   299520, 0xd81f9f93
0,         46,         46,        1,   299520, 0x7ca89492
0,         47,         47,        1,   299520, 0xa5f19ff6
0,         48,         48,        1,   299520, 0x1f43aa36
0,         49,         49,        1,   299520, 0x54789c0a
0,         50,         50,        1,   299520, 0xdbbaa846
0,         51,         51,        1,   299520, 0x61e64e06
0,         52,         52,        1,   299520, 0xf3b6a140
0,         53,         53,        1,   299520, 0xc50692d4
0,         54,         54,        1,   299520, 0x80e1218b
0,         55,         55,        1,   299520, 0x2dead9c6
0,         56,         56,        1,   299520, 0xdfe6187a
0,         57,         57,        1,   299520, 0xe935b6dd
0,         58,         58,        1,   299520, 0xbfa8d50b
0,         59,         59,        1,   299520, 0xc100ca21
0,         60,         60,        1,   299520, 0x6a9f77bb
0,         61,         61,        1,   299520, 0xd8329ca7
0,         62,         62,        1,   299520, 0x08252509
0,         63,         63,        1,   299520, 0xd875043f
0,         64,         64,        1,   299520, 0x454c3305
0,         65,         65,        1,   299520, 0x16274a0c
0,         66,         66,        1,   299520, 0x6ddef9e6
0,         67,         67,        1,   299520, 0x3bab8cbd
0,         68,         68,        1,   299520, 0x25b2bd38
0,         69,         69,        1,   299520, 0x8a42afd7
0,         70,         70,        1,   299520, 0x8009965d
0,         71,         71,        1,   299520, 0x8c84d573
0,         72,         72,        1,   299520, 0x18904928
0,         73,         73,        1,   299520, 0xfe1209d2
0,         74,         74,        1,   299520, 0x69078408
0,         75,         75,        1,   299520, 0x7fab41a6
0,         76,         76,        1,   299520, 0xdfe0cf2c
0,         77,         77,        1,   299520, 0x8f60e919
0,         78,         78,        1,   299520, 0x8b089fbc
0,         79,         79,        1,   299520, 0x7c5fc9a3
0,         80,         80,        1,   299520, 0xa82d7164
0,         81,         81,        1,   299520, 0x90e09969
0,         82,         82,        1,   299520, 0xde953cf2
0,         83,         83,        1,   299520, 0x6e633b95
0,         84,         84,        1,   299520, 0xd9ad6988
0,         85,         85,        1,   299520, 0xf5d945ac
0,         86,         86,        1,   299520, 0x0d2726e3
0,         87,         87,        1,   299520, 0x020178c6
